<svg width="146" height="26" viewBox="0 0 146 26" fill="none" xmlns="http://www.w3.org/2000/svg">
<path d="M0 0.862434H6.05095L16.8883 14.5851L10.7673 15.6423L5.91077 9.72859V16.6965L0 17.7508V0.862434Z" fill="white"/>
<path d="M17.636 0.590843V14.4625L23.7979 13.4958V0.590843H17.636Z" fill="white"/>
<path d="M0 21.8509L6.01882 20.5601L6.18236 24.5289H0V21.8509Z" fill="white"/>
<path d="M13.5708 19.2723L23.7978 17.4324V24.5289H17.6359L13.5708 19.2723Z" fill="white"/>
<path d="M28.8296 0.590843L28.9581 12.5613L35.0236 11.4633V0.590843H28.8296Z" fill="white"/>
<path d="M43.5743 0.590843H49.5756L49.7041 8.7532L43.5743 9.94762V0.590843Z" fill="white"/>
<path d="M28.9932 16.495L35.0266 15.5926C35.0266 15.5926 35.9786 20.5339 39.594 19.8709C43.2094 19.208 43.2532 16.7549 43.5744 14.0449L49.7042 13.1103C49.7042 13.1103 50.9074 25.4371 39.6845 25.2619C36.4868 25.2122 30.6665 25.9715 28.9902 16.4979L28.9932 16.495Z" fill="white"/>
<path d="M54.6191 0.590843V8.17789L60.7431 6.89878V0.590843H54.6191Z" fill="white"/>
<path d="M54.6191 11.9685L60.7431 11.0427V19.1847H68.1929V24.6165H54.6191V11.9685Z" fill="white"/>
<path d="M71.4548 0.771904V5.00348L77.7131 3.94631V0.771904H71.4548Z" fill="white"/>
<path d="M71.4548 9.19125L77.7131 8.17789V19.1847H85.1162V24.6165H71.4548V9.19125Z" fill="white"/>
<path d="M116.124 5.83577H123.53V0.68721H110.164V24.6165H123.53V19.3365H116.303L116.215 15.0465L123.031 15.0903L123.168 9.85416H116.168L116.124 5.83577Z" fill="white"/>
<path d="M145.249 1.22748V8.36187C145.249 8.36187 142.267 4.29675 136.625 6.78197C136.625 6.78197 131.523 9.76363 134.096 15.324C134.096 15.324 138.071 23.352 145.249 16.714V23.8046C145.249 23.8046 137.303 28.1384 130.574 21.4567C130.574 21.4567 123.53 13.7353 130.031 4.34348C130.031 4.34348 134.774 -2.79091 145.249 1.22748Z" fill="white"/>
<path d="M106.207 7.4186V1.95756C96.4092 -1.84181 87.2656 1.95756 87.2656 1.95756V14.0127L92.9106 14.004L93.0537 15.9635C93.0771 16.2935 93.2027 16.6089 93.4042 16.8717C94.5606 18.3728 96.7363 19.4767 96.7363 19.4767C98.2286 18.805 99.496 17.5434 100.112 16.863C100.366 16.5826 100.506 16.2176 100.506 15.8379V13.9748L103.409 13.9514L103.365 16.0336C103.36 16.276 103.319 16.5184 103.234 16.7432C101.803 20.566 98.433 22.2452 97.1977 22.7445C96.9115 22.8614 96.5903 22.8643 96.307 22.7387C92.0112 20.8668 90.551 16.9039 90.551 16.9039L87.2627 16.9185C88.5564 22.7621 94.7767 25.3612 96.3654 25.9365C96.5961 26.0212 96.8531 26.0212 97.0838 25.9365C104.25 23.2906 105.894 18.1187 106.16 17.0528C106.192 16.9301 106.204 16.8046 106.204 16.679V10.6835H100.504V6.46656C96.821 5.21958 93.1413 6.46656 93.1413 6.46656L93.1998 10.6835H90.2823L90.2298 3.84118C96.5844 2.1649 103.292 3.84118 103.292 3.84118L103.234 7.41568H106.204L106.207 7.4186ZM95.1564 9.43947C95.2002 7.90337 96.6779 7.93258 96.6779 7.93258C98.287 7.87417 98.3162 9.39567 98.3162 9.39567C98.3366 10.1579 97.8606 10.5375 97.5335 10.7069C97.3583 10.7974 97.2678 10.9931 97.3058 11.1888L98.2403 15.9956C98.2811 16.203 98.1205 16.3957 97.9103 16.3957H95.5798C95.3608 16.3957 95.1973 16.2001 95.2323 15.984L96.0412 11.3202C96.088 11.0515 95.9507 10.7974 95.7229 10.6456C95.098 10.228 95.1622 9.43655 95.1622 9.43655L95.1564 9.43947Z" fill="white"/>
</svg>
