<svg width="706" height="513" viewBox="0 0 706 513" fill="none" xmlns="http://www.w3.org/2000/svg">
<path d="M338.627 22.95V20.175H335.912V18.525H338.627V15.75H340.427V18.525H343.112V20.175H340.427V22.95H338.627ZM347.621 22.95V20.175H344.906V18.525H347.621V15.75H349.421V18.525H352.106V20.175H349.421V22.95H347.621ZM356.615 22.95V20.175H353.9V18.525H356.615V15.75H358.415V18.525H361.1V20.175H358.415V22.95H356.615ZM365.609 22.95V20.175H362.894V18.525H365.609V15.75H367.409V18.525H370.094V20.175H367.409V22.95H365.609ZM293.656 39.95V37.175H290.941V35.525H293.656V32.75H295.456V35.525H298.141V37.175H295.456V39.95H293.656ZM302.65 39.95V37.175H299.935V35.525H302.65V32.75H304.45V35.525H307.135V37.175H304.45V39.95H302.65ZM311.644 39.95V37.175H308.929V35.525H311.644V32.75H313.444V35.525H316.129V37.175H313.444V39.95H311.644ZM320.638 39.95V37.175H317.923V35.525H320.638V32.75H322.438V35.525H325.123V37.175H322.438V39.95H320.638ZM329.633 39.95V37.175H326.918V35.525H329.633V32.75H331.433V35.525H334.118V37.175H331.433V39.95H329.633ZM338.627 39.95V37.175H335.912V35.525H338.627V32.75H340.427V35.525H343.112V37.175H340.427V39.95H338.627ZM347.621 39.95V37.175H344.906V35.525H347.621V32.75H349.421V35.525H352.106V37.175H349.421V39.95H347.621ZM356.615 39.95V37.175H353.9V35.525H356.615V32.75H358.415V35.525H361.1V37.175H358.415V39.95H356.615ZM365.609 39.95V37.175H362.894V35.525H365.609V32.75H367.409V35.525H370.094V37.175H367.409V39.95H365.609ZM374.603 39.95V37.175H371.888V35.525H374.603V32.75H376.403V35.525H379.088V37.175H376.403V39.95H374.603ZM383.597 39.95V37.175H380.882V35.525H383.597V32.75H385.397V35.525H388.082V37.175H385.397V39.95H383.597ZM392.592 39.95V37.175H389.877V35.525H392.592V32.75H394.392V35.525H397.077V37.175H394.392V39.95H392.592ZM401.586 39.95V37.175H398.871V35.525H401.586V32.75H403.386V35.525H406.071V37.175H403.386V39.95H401.586ZM410.58 39.95V37.175H407.865V35.525H410.58V32.75H412.38V35.525H415.065V37.175H412.38V39.95H410.58ZM419.574 39.95V37.175H416.859V35.525H419.574V32.75H421.374V35.525H424.059V37.175H421.374V39.95H419.574ZM428.568 39.95V37.175H425.853V35.525H428.568V32.75H430.368V35.525H433.053V37.175H430.368V39.95H428.568ZM437.562 39.95V37.175H434.847V35.525H437.562V32.75H439.362V35.525H442.047V37.175H439.362V39.95H437.562ZM446.556 39.95V37.175H443.841V35.525H446.556V32.75H448.356V35.525H451.041V37.175H448.356V39.95H446.556ZM455.551 39.95V37.175H452.836V35.525H455.551V32.75H457.351V35.525H460.036V37.175H457.351V39.95H455.551ZM464.545 39.95V37.175H461.83V35.525H464.545V32.75H466.345V35.525H469.03V37.175H466.345V39.95H464.545ZM473.539 39.95V37.175H470.824V35.525H473.539V32.75H475.339V35.525H478.024V37.175H475.339V39.95H473.539ZM482.533 39.95V37.175H479.818V35.525H482.533V32.75H484.333V35.525H487.018V37.175H484.333V39.95H482.533ZM491.527 39.95V37.175H488.812V35.525H491.527V32.75H493.327V35.525H496.012V37.175H493.327V39.95H491.527ZM500.521 39.95V37.175H497.806V35.525H500.521V32.75H502.321V35.525H505.006V37.175H502.321V39.95H500.521ZM509.515 39.95V37.175H506.8V35.525H509.515V32.75H511.315V35.525H514V37.175H511.315V39.95H509.515ZM518.51 39.95V37.175H515.795V35.525H518.51V32.75H520.31V35.525H522.995V37.175H520.31V39.95H518.51ZM257.679 56.95V54.175H254.964V52.525H257.679V49.75H259.479V52.525H262.164V54.175H259.479V56.95H257.679ZM266.674 56.95V54.175H263.959V52.525H266.674V49.75H268.474V52.525H271.159V54.175H268.474V56.95H266.674ZM275.668 56.95V54.175H272.953V52.525H275.668V49.75H277.468V52.525H280.153V54.175H277.468V56.95H275.668ZM284.662 56.95V54.175H281.947V52.525H284.662V49.75H286.462V52.525H289.147V54.175H286.462V56.95H284.662ZM293.656 56.95V54.175H290.941V52.525H293.656V49.75H295.456V52.525H298.141V54.175H295.456V56.95H293.656ZM320.638 56.95V54.175H317.923V52.525H320.638V49.75H322.438V52.525H325.123V54.175H322.438V56.95H320.638ZM329.633 56.95V54.175H326.918V52.525H329.633V49.75H331.433V52.525H334.118V54.175H331.433V56.95H329.633ZM482.533 56.95V54.175H479.818V52.525H482.533V49.75H484.333V52.525H487.018V54.175H484.333V56.95H482.533ZM491.527 56.95V54.175H488.812V52.525H491.527V49.75H493.327V52.525H496.012V54.175H493.327V56.95H491.527ZM500.521 56.95V54.175H497.806V52.525H500.521V49.75H502.321V52.525H505.006V54.175H502.321V56.95H500.521ZM509.515 56.95V54.175H506.8V52.525H509.515V49.75H511.315V52.525H514V54.175H511.315V56.95H509.515ZM518.51 56.95V54.175H515.795V52.525H518.51V49.75H520.31V52.525H522.995V54.175H520.31V56.95H518.51ZM221.703 73.95V71.175H218.988V69.525H221.703V66.75H223.503V69.525H226.188V71.175H223.503V73.95H221.703ZM230.697 73.95V71.175H227.982V69.525H230.697V66.75H232.497V69.525H235.182V71.175H232.497V73.95H230.697ZM239.691 73.95V71.175H236.976V69.525H239.691V66.75H241.491V69.525H244.176V71.175H241.491V73.95H239.691ZM248.685 73.95V71.175H245.97V69.525H248.685V66.75H250.485V69.525H253.17V71.175H250.485V73.95H248.685ZM257.679 73.95V71.175H254.964V69.525H257.679V66.75H259.479V69.525H262.164V71.175H259.479V73.95H257.679ZM311.644 73.95V71.175H308.929V69.525H311.644V66.75H313.444V69.525H316.129V71.175H313.444V73.95H311.644ZM320.638 73.95V71.175H317.923V69.525H320.638V66.75H322.438V69.525H325.123V71.175H322.438V73.95H320.638ZM446.556 73.95V71.175H443.841V69.525H446.556V66.75H448.356V69.525H451.041V71.175H448.356V73.95H446.556ZM455.551 73.95V71.175H452.836V69.525H455.551V66.75H457.351V69.525H460.036V71.175H457.351V73.95H455.551ZM464.545 73.95V71.175H461.83V69.525H464.545V66.75H466.345V69.525H469.03V71.175H466.345V73.95H464.545ZM473.539 73.95V71.175H470.824V69.525H473.539V66.75H475.339V69.525H478.024V71.175H475.339V73.95H473.539ZM482.533 73.95V71.175H479.818V69.525H482.533V66.75H484.333V69.525H487.018V71.175H484.333V73.95H482.533ZM500.521 73.95V71.175H497.806V69.525H500.521V66.75H502.321V69.525H505.006V71.175H502.321V73.95H500.521ZM509.515 73.95V71.175H506.8V69.525H509.515V66.75H511.315V69.525H514V71.175H511.315V73.95H509.515ZM518.51 73.95V71.175H515.795V69.525H518.51V66.75H520.31V69.525H522.995V71.175H520.31V73.95H518.51ZM212.709 90.95V88.175H209.994V86.525H212.709V83.75H214.509V86.525H217.194V88.175H214.509V90.95H212.709ZM221.703 90.95V88.175H218.988V86.525H221.703V83.75H223.503V86.525H226.188V88.175H223.503V90.95H221.703ZM230.697 90.95V88.175H227.982V86.525H230.697V83.75H232.497V86.525H235.182V88.175H232.497V90.95H230.697ZM302.65 90.95V88.175H299.935V86.525H302.65V83.75H304.45V86.525H307.135V88.175H304.45V90.95H302.65ZM311.644 90.95V88.175H308.929V86.525H311.644V83.75H313.444V86.525H316.129V88.175H313.444V90.95H311.644ZM320.638 90.95V88.175H317.923V86.525H320.638V83.75H322.438V86.525H325.123V88.175H322.438V90.95H320.638ZM419.574 90.95V88.175H416.859V86.525H419.574V83.75H421.374V86.525H424.059V88.175H421.374V90.95H419.574ZM428.568 90.95V88.175H425.853V86.525H428.568V83.75H430.368V86.525H433.053V88.175H430.368V90.95H428.568ZM437.562 90.95V88.175H434.847V86.525H437.562V83.75H439.362V86.525H442.047V88.175H439.362V90.95H437.562ZM446.556 90.95V88.175H443.841V86.525H446.556V83.75H448.356V86.525H451.041V88.175H448.356V90.95H446.556ZM455.551 90.95V88.175H452.836V86.525H455.551V83.75H457.351V86.525H460.036V88.175H457.351V90.95H455.551ZM491.527 90.95V88.175H488.812V86.525H491.527V83.75H493.327V86.525H496.012V88.175H493.327V90.95H491.527ZM500.521 90.95V88.175H497.806V86.525H500.521V83.75H502.321V86.525H505.006V88.175H502.321V90.95H500.521ZM509.515 90.95V88.175H506.8V86.525H509.515V83.75H511.315V86.525H514V88.175H511.315V90.95H509.515ZM518.51 90.95V88.175H515.795V86.525H518.51V83.75H520.31V86.525H522.995V88.175H520.31V90.95H518.51ZM212.709 107.95V105.175H209.994V103.525H212.709V100.75H214.509V103.525H217.194V105.175H214.509V107.95H212.709ZM221.703 107.95V105.175H218.988V103.525H221.703V100.75H223.503V103.525H226.188V105.175H223.503V107.95H221.703ZM230.697 107.95V105.175H227.982V103.525H230.697V100.75H232.497V103.525H235.182V105.175H232.497V107.95H230.697ZM239.691 107.95V105.175H236.976V103.525H239.691V100.75H241.491V103.525H244.176V105.175H241.491V107.95H239.691ZM302.65 107.95V105.175H299.935V103.525H302.65V100.75H304.45V103.525H307.135V105.175H304.45V107.95H302.65ZM311.644 107.95V105.175H308.929V103.525H311.644V100.75H313.444V103.525H316.129V105.175H313.444V107.95H311.644ZM392.592 107.95V105.175H389.877V103.525H392.592V100.75H394.392V103.525H397.077V105.175H394.392V107.95H392.592ZM401.586 107.95V105.175H398.871V103.525H401.586V100.75H403.386V103.525H406.071V105.175H403.386V107.95H401.586ZM410.58 107.95V105.175H407.865V103.525H410.58V100.75H412.38V103.525H415.065V105.175H412.38V107.95H410.58ZM419.574 107.95V105.175H416.859V103.525H419.574V100.75H421.374V103.525H424.059V105.175H421.374V107.95H419.574ZM482.533 107.95V105.175H479.818V103.525H482.533V100.75H484.333V103.525H487.018V105.175H484.333V107.95H482.533ZM491.527 107.95V105.175H488.812V103.525H491.527V100.75H493.327V103.525H496.012V105.175H493.327V107.95H491.527ZM500.521 107.95V105.175H497.806V103.525H500.521V100.75H502.321V103.525H505.006V105.175H502.321V107.95H500.521ZM509.515 107.95V105.175H506.8V103.525H509.515V100.75H511.315V103.525H514V105.175H511.315V107.95H509.515ZM212.709 124.95V122.175H209.994V120.525H212.709V117.75H214.509V120.525H217.194V122.175H214.509V124.95H212.709ZM221.703 124.95V122.175H218.988V120.525H221.703V117.75H223.503V120.525H226.188V122.175H223.503V124.95H221.703ZM239.691 124.95V122.175H236.976V120.525H239.691V117.75H241.491V120.525H244.176V122.175H241.491V124.95H239.691ZM248.685 124.95V122.175H245.97V120.525H248.685V117.75H250.485V120.525H253.17V122.175H250.485V124.95H248.685ZM257.679 124.95V122.175H254.964V120.525H257.679V117.75H259.479V120.525H262.164V122.175H259.479V124.95H257.679ZM293.656 124.95V122.175H290.941V120.525H293.656V117.75H295.456V120.525H298.141V122.175H295.456V124.95H293.656ZM302.65 124.95V122.175H299.935V120.525H302.65V117.75H304.45V120.525H307.135V122.175H304.45V124.95H302.65ZM356.615 124.95V122.175H353.9V120.525H356.615V117.75H358.415V120.525H361.1V122.175H358.415V124.95H356.615ZM365.609 124.95V122.175H362.894V120.525H365.609V117.75H367.409V120.525H370.094V122.175H367.409V124.95H365.609ZM374.603 124.95V122.175H371.888V120.525H374.603V117.75H376.403V120.525H379.088V122.175H376.403V124.95H374.603ZM383.597 124.95V122.175H380.882V120.525H383.597V117.75H385.397V120.525H388.082V122.175H385.397V124.95H383.597ZM392.592 124.95V122.175H389.877V120.525H392.592V117.75H394.392V120.525H397.077V122.175H394.392V124.95H392.592ZM482.533 124.95V122.175H479.818V120.525H482.533V117.75H484.333V120.525H487.018V122.175H484.333V124.95H482.533ZM491.527 124.95V122.175H488.812V120.525H491.527V117.75H493.327V120.525H496.012V122.175H493.327V124.95H491.527ZM500.521 124.95V122.175H497.806V120.525H500.521V117.75H502.321V120.525H505.006V122.175H502.321V124.95H500.521ZM509.515 124.95V122.175H506.8V120.525H509.515V117.75H511.315V120.525H514V122.175H511.315V124.95H509.515ZM212.709 141.95V139.175H209.994V137.525H212.709V134.75H214.509V137.525H217.194V139.175H214.509V141.95H212.709ZM221.703 141.95V139.175H218.988V137.525H221.703V134.75H223.503V137.525H226.188V139.175H223.503V141.95H221.703ZM257.679 141.95V139.175H254.964V137.525H257.679V134.75H259.479V137.525H262.164V139.175H259.479V141.95H257.679ZM266.674 141.95V139.175H263.959V137.525H266.674V134.75H268.474V137.525H271.159V139.175H268.474V141.95H266.674ZM284.662 141.95V139.175H281.947V137.525H284.662V134.75H286.462V137.525H289.147V139.175H286.462V141.95H284.662ZM293.656 141.95V139.175H290.941V137.525H293.656V134.75H295.456V137.525H298.141V139.175H295.456V141.95H293.656ZM302.65 141.95V139.175H299.935V137.525H302.65V134.75H304.45V137.525H307.135V139.175H304.45V141.95H302.65ZM329.633 141.95V139.175H326.918V137.525H329.633V134.75H331.433V137.525H334.118V139.175H331.433V141.95H329.633ZM338.627 141.95V139.175H335.912V137.525H338.627V134.75H340.427V137.525H343.112V139.175H340.427V141.95H338.627ZM347.621 141.95V139.175H344.906V137.525H347.621V134.75H349.421V137.525H352.106V139.175H349.421V141.95H347.621ZM356.615 141.95V139.175H353.9V137.525H356.615V134.75H358.415V137.525H361.1V139.175H358.415V141.95H356.615ZM473.539 141.95V139.175H470.824V137.525H473.539V134.75H475.339V137.525H478.024V139.175H475.339V141.95H473.539ZM482.533 141.95V139.175H479.818V137.525H482.533V134.75H484.333V137.525H487.018V139.175H484.333V141.95H482.533ZM491.527 141.95V139.175H488.812V137.525H491.527V134.75H493.327V137.525H496.012V139.175H493.327V141.95H491.527ZM500.521 141.95V139.175H497.806V137.525H500.521V134.75H502.321V137.525H505.006V139.175H502.321V141.95H500.521ZM212.709 158.95V156.175H209.994V154.525H212.709V151.75H214.509V154.525H217.194V156.175H214.509V158.95H212.709ZM221.703 158.95V156.175H218.988V154.525H221.703V151.75H223.503V154.525H226.188V156.175H223.503V158.95H221.703ZM266.674 158.95V156.175H263.959V154.525H266.674V151.75H268.474V154.525H271.159V156.175H268.474V158.95H266.674ZM275.668 158.95V156.175H272.953V154.525H275.668V151.75H277.468V154.525H280.153V156.175H277.468V158.95H275.668ZM284.662 158.95V156.175H281.947V154.525H284.662V151.75H286.462V154.525H289.147V156.175H286.462V158.95H284.662ZM293.656 158.95V156.175H290.941V154.525H293.656V151.75H295.456V154.525H298.141V156.175H295.456V158.95H293.656ZM302.65 158.95V156.175H299.935V154.525H302.65V151.75H304.45V154.525H307.135V156.175H304.45V158.95H302.65ZM311.644 158.95V156.175H308.929V154.525H311.644V151.75H313.444V154.525H316.129V156.175H313.444V158.95H311.644ZM320.638 158.95V156.175H317.923V154.525H320.638V151.75H322.438V154.525H325.123V156.175H322.438V158.95H320.638ZM329.633 158.95V156.175H326.918V154.525H329.633V151.75H331.433V154.525H334.118V156.175H331.433V158.95H329.633ZM464.545 158.95V156.175H461.83V154.525H464.545V151.75H466.345V154.525H469.03V156.175H466.345V158.95H464.545ZM473.539 158.95V156.175H470.824V154.525H473.539V151.75H475.339V154.525H478.024V156.175H475.339V158.95H473.539ZM491.527 158.95V156.175H488.812V154.525H491.527V151.75H493.327V154.525H496.012V156.175H493.327V158.95H491.527ZM500.521 158.95V156.175H497.806V154.525H500.521V151.75H502.321V154.525H505.006V156.175H502.321V158.95H500.521ZM203.715 175.95V173.175H201V171.525H203.715V168.75H205.515V171.525H208.2V173.175H205.515V175.95H203.715ZM212.709 175.95V173.175H209.994V171.525H212.709V168.75H214.509V171.525H217.194V173.175H214.509V175.95H212.709ZM221.703 175.95V173.175H218.988V171.525H221.703V168.75H223.503V171.525H226.188V173.175H223.503V175.95H221.703ZM275.668 175.95V173.175H272.953V171.525H275.668V168.75H277.468V171.525H280.153V173.175H277.468V175.95H275.668ZM284.662 175.95V173.175H281.947V171.525H284.662V168.75H286.462V171.525H289.147V173.175H286.462V175.95H284.662ZM293.656 175.95V173.175H290.941V171.525H293.656V168.75H295.456V171.525H298.141V173.175H295.456V175.95H293.656ZM455.551 175.95V173.175H452.836V171.525H455.551V168.75H457.351V171.525H460.036V173.175H457.351V175.95H455.551ZM464.545 175.95V173.175H461.83V171.525H464.545V168.75H466.345V171.525H469.03V173.175H466.345V175.95H464.545ZM482.533 175.95V173.175H479.818V171.525H482.533V168.75H484.333V171.525H487.018V173.175H484.333V175.95H482.533ZM491.527 175.95V173.175H488.812V171.525H491.527V168.75H493.327V171.525H496.012V173.175H493.327V175.95H491.527ZM500.521 175.95V173.175H497.806V171.525H500.521V168.75H502.321V171.525H505.006V173.175H502.321V175.95H500.521ZM203.715 192.95V190.175H201V188.525H203.715V185.75H205.515V188.525H208.2V190.175H205.515V192.95H203.715ZM212.709 192.95V190.175H209.994V188.525H212.709V185.75H214.509V188.525H217.194V190.175H214.509V192.95H212.709ZM266.674 192.95V190.175H263.959V188.525H266.674V185.75H268.474V188.525H271.159V190.175H268.474V192.95H266.674ZM275.668 192.95V190.175H272.953V188.525H275.668V185.75H277.468V188.525H280.153V190.175H277.468V192.95H275.668ZM293.656 192.95V190.175H290.941V188.525H293.656V185.75H295.456V188.525H298.141V190.175H295.456V192.95H293.656ZM302.65 192.95V190.175H299.935V188.525H302.65V185.75H304.45V188.525H307.135V190.175H304.45V192.95H302.65ZM311.644 192.95V190.175H308.929V188.525H311.644V185.75H313.444V188.525H316.129V190.175H313.444V192.95H311.644ZM320.638 192.95V190.175H317.923V188.525H320.638V185.75H322.438V188.525H325.123V190.175H322.438V192.95H320.638ZM446.556 192.95V190.175H443.841V188.525H446.556V185.75H448.356V188.525H451.041V190.175H448.356V192.95H446.556ZM455.551 192.95V190.175H452.836V188.525H455.551V185.75H457.351V188.525H460.036V190.175H457.351V192.95H455.551ZM464.545 192.95V190.175H461.83V188.525H464.545V185.75H466.345V188.525H469.03V190.175H466.345V192.95H464.545ZM482.533 192.95V190.175H479.818V188.525H482.533V185.75H484.333V188.525H487.018V190.175H484.333V192.95H482.533ZM491.527 192.95V190.175H488.812V188.525H491.527V185.75H493.327V188.525H496.012V190.175H493.327V192.95H491.527ZM203.715 209.95V207.175H201V205.525H203.715V202.75H205.515V205.525H208.2V207.175H205.515V209.95H203.715ZM212.709 209.95V207.175H209.994V205.525H212.709V202.75H214.509V205.525H217.194V207.175H214.509V209.95H212.709ZM257.679 209.95V207.175H254.964V205.525H257.679V202.75H259.479V205.525H262.164V207.175H259.479V209.95H257.679ZM266.674 209.95V207.175H263.959V205.525H266.674V202.75H268.474V205.525H271.159V207.175H268.474V209.95H266.674ZM320.638 209.95V207.175H317.923V205.525H320.638V202.75H322.438V205.525H325.123V207.175H322.438V209.95H320.638ZM329.633 209.95V207.175H326.918V205.525H329.633V202.75H331.433V205.525H334.118V207.175H331.433V209.95H329.633ZM338.627 209.95V207.175H335.912V205.525H338.627V202.75H340.427V205.525H343.112V207.175H340.427V209.95H338.627ZM437.562 209.95V207.175H434.847V205.525H437.562V202.75H439.362V205.525H442.047V207.175H439.362V209.95H437.562ZM446.556 209.95V207.175H443.841V205.525H446.556V202.75H448.356V205.525H451.041V207.175H448.356V209.95H446.556ZM482.533 209.95V207.175H479.818V205.525H482.533V202.75H484.333V205.525H487.018V207.175H484.333V209.95H482.533ZM491.527 209.95V207.175H488.812V205.525H491.527V202.75H493.327V205.525H496.012V207.175H493.327V209.95H491.527ZM203.715 226.95V224.175H201V222.525H203.715V219.75H205.515V222.525H208.2V224.175H205.515V226.95H203.715ZM212.709 226.95V224.175H209.994V222.525H212.709V219.75H214.509V222.525H217.194V224.175H214.509V226.95H212.709ZM248.685 226.95V224.175H245.97V222.525H248.685V219.75H250.485V222.525H253.17V224.175H250.485V226.95H248.685ZM257.679 226.95V224.175H254.964V222.525H257.679V219.75H259.479V222.525H262.164V224.175H259.479V226.95H257.679ZM266.674 226.95V224.175H263.959V222.525H266.674V219.75H268.474V222.525H271.159V224.175H268.474V226.95H266.674ZM338.627 226.95V224.175H335.912V222.525H338.627V219.75H340.427V222.525H343.112V224.175H340.427V226.95H338.627ZM347.621 226.95V224.175H344.906V222.525H347.621V219.75H349.421V222.525H352.106V224.175H349.421V226.95H347.621ZM356.615 226.95V224.175H353.9V222.525H356.615V219.75H358.415V222.525H361.1V224.175H358.415V226.95H356.615ZM365.609 226.95V224.175H362.894V222.525H365.609V219.75H367.409V222.525H370.094V224.175H367.409V226.95H365.609ZM428.568 226.95V224.175H425.853V222.525H428.568V219.75H430.368V222.525H433.053V224.175H430.368V226.95H428.568ZM437.562 226.95V224.175H434.847V222.525H437.562V219.75H439.362V222.525H442.047V224.175H439.362V226.95H437.562ZM446.556 226.95V224.175H443.841V222.525H446.556V219.75H448.356V222.525H451.041V224.175H448.356V226.95H446.556ZM473.539 226.95V224.175H470.824V222.525H473.539V219.75H475.339V222.525H478.024V224.175H475.339V226.95H473.539ZM482.533 226.95V224.175H479.818V222.525H482.533V219.75H484.333V222.525H487.018V224.175H484.333V226.95H482.533ZM491.527 226.95V224.175H488.812V222.525H491.527V219.75H493.327V222.525H496.012V224.175H493.327V226.95H491.527ZM203.715 243.95V241.175H201V239.525H203.715V236.75H205.515V239.525H208.2V241.175H205.515V243.95H203.715ZM212.709 243.95V241.175H209.994V239.525H212.709V236.75H214.509V239.525H217.194V241.175H214.509V243.95H212.709ZM239.691 243.95V241.175H236.976V239.525H239.691V236.75H241.491V239.525H244.176V241.175H241.491V243.95H239.691ZM248.685 243.95V241.175H245.97V239.525H248.685V236.75H250.485V239.525H253.17V241.175H250.485V243.95H248.685ZM257.679 243.95V241.175H254.964V239.525H257.679V236.75H259.479V239.525H262.164V241.175H259.479V243.95H257.679ZM356.615 243.95V241.175H353.9V239.525H356.615V236.75H358.415V239.525H361.1V241.175H358.415V243.95H356.615ZM365.609 243.95V241.175H362.894V239.525H365.609V236.75H367.409V239.525H370.094V241.175H367.409V243.95H365.609ZM374.603 243.95V241.175H371.888V239.525H374.603V236.75H376.403V239.525H379.088V241.175H376.403V243.95H374.603ZM383.597 243.95V241.175H380.882V239.525H383.597V236.75H385.397V239.525H388.082V241.175H385.397V243.95H383.597ZM428.568 243.95V241.175H425.853V239.525H428.568V236.75H430.368V239.525H433.053V241.175H430.368V243.95H428.568ZM437.562 243.95V241.175H434.847V239.525H437.562V236.75H439.362V239.525H442.047V241.175H439.362V243.95H437.562ZM473.539 243.95V241.175H470.824V239.525H473.539V236.75H475.339V239.525H478.024V241.175H475.339V243.95H473.539ZM482.533 243.95V241.175H479.818V239.525H482.533V236.75H484.333V239.525H487.018V241.175H484.333V243.95H482.533ZM203.715 260.95V258.175H201V256.525H203.715V253.75H205.515V256.525H208.2V258.175H205.515V260.95H203.715ZM212.709 260.95V258.175H209.994V256.525H212.709V253.75H214.509V256.525H217.194V258.175H214.509V260.95H212.709ZM230.697 260.95V258.175H227.982V256.525H230.697V253.75H232.497V256.525H235.182V258.175H232.497V260.95H230.697ZM239.691 260.95V258.175H236.976V256.525H239.691V253.75H241.491V256.525H244.176V258.175H241.491V260.95H239.691ZM248.685 260.95V258.175H245.97V256.525H248.685V253.75H250.485V256.525H253.17V258.175H250.485V260.95H248.685ZM383.597 260.95V258.175H380.882V256.525H383.597V253.75H385.397V256.525H388.082V258.175H385.397V260.95H383.597ZM392.592 260.95V258.175H389.877V256.525H392.592V253.75H394.392V256.525H397.077V258.175H394.392V260.95H392.592ZM401.586 260.95V258.175H398.871V256.525H401.586V253.75H403.386V256.525H406.071V258.175H403.386V260.95H401.586ZM410.58 260.95V258.175H407.865V256.525H410.58V253.75H412.38V256.525H415.065V258.175H412.38V260.95H410.58ZM419.574 260.95V258.175H416.859V256.525H419.574V253.75H421.374V256.525H424.059V258.175H421.374V260.95H419.574ZM428.568 260.95V258.175H425.853V256.525H428.568V253.75H430.368V256.525H433.053V258.175H430.368V260.95H428.568ZM464.545 260.95V258.175H461.83V256.525H464.545V253.75H466.345V256.525H469.03V258.175H466.345V260.95H464.545ZM473.539 260.95V258.175H470.824V256.525H473.539V253.75H475.339V256.525H478.024V258.175H475.339V260.95H473.539ZM482.533 260.95V258.175H479.818V256.525H482.533V253.75H484.333V256.525H487.018V258.175H484.333V260.95H482.533ZM203.715 277.95V275.175H201V273.525H203.715V270.75H205.515V273.525H208.2V275.175H205.515V277.95H203.715ZM212.709 277.95V275.175H209.994V273.525H212.709V270.75H214.509V273.525H217.194V275.175H214.509V277.95H212.709ZM221.703 277.95V275.175H218.988V273.525H221.703V270.75H223.503V273.525H226.188V275.175H223.503V277.95H221.703ZM230.697 277.95V275.175H227.982V273.525H230.697V270.75H232.497V273.525H235.182V275.175H232.497V277.95H230.697ZM239.691 277.95V275.175H236.976V273.525H239.691V270.75H241.491V273.525H244.176V275.175H241.491V277.95H239.691ZM383.597 277.95V275.175H380.882V273.525H383.597V270.75H385.397V273.525H388.082V275.175H385.397V277.95H383.597ZM392.592 277.95V275.175H389.877V273.525H392.592V270.75H394.392V273.525H397.077V275.175H394.392V277.95H392.592ZM401.586 277.95V275.175H398.871V273.525H401.586V270.75H403.386V273.525H406.071V275.175H403.386V277.95H401.586ZM410.58 277.95V275.175H407.865V273.525H410.58V270.75H412.38V273.525H415.065V275.175H412.38V277.95H410.58ZM419.574 277.95V275.175H416.859V273.525H419.574V270.75H421.374V273.525H424.059V275.175H421.374V277.95H419.574ZM464.545 277.95V275.175H461.83V273.525H464.545V270.75H466.345V273.525H469.03V275.175H466.345V277.95H464.545ZM473.539 277.95V275.175H470.824V273.525H473.539V270.75H475.339V273.525H478.024V275.175H475.339V277.95H473.539ZM203.715 294.95V292.175H201V290.525H203.715V287.75H205.515V290.525H208.2V292.175H205.515V294.95H203.715ZM212.709 294.95V292.175H209.994V290.525H212.709V287.75H214.509V290.525H217.194V292.175H214.509V294.95H212.709ZM221.703 294.95V292.175H218.988V290.525H221.703V287.75H223.503V290.525H226.188V292.175H223.503V294.95H221.703ZM230.697 294.95V292.175H227.982V290.525H230.697V287.75H232.497V290.525H235.182V292.175H232.497V294.95H230.697ZM302.65 294.95V292.175H299.935V290.525H302.65V287.75H304.45V290.525H307.135V292.175H304.45V294.95H302.65ZM311.644 294.95V292.175H308.929V290.525H311.644V287.75H313.444V290.525H316.129V292.175H313.444V294.95H311.644ZM320.638 294.95V292.175H317.923V290.525H320.638V287.75H322.438V290.525H325.123V292.175H322.438V294.95H320.638ZM329.633 294.95V292.175H326.918V290.525H329.633V287.75H331.433V290.525H334.118V292.175H331.433V294.95H329.633ZM338.627 294.95V292.175H335.912V290.525H338.627V287.75H340.427V290.525H343.112V292.175H340.427V294.95H338.627ZM347.621 294.95V292.175H344.906V290.525H347.621V287.75H349.421V290.525H352.106V292.175H349.421V294.95H347.621ZM356.615 294.95V292.175H353.9V290.525H356.615V287.75H358.415V290.525H361.1V292.175H358.415V294.95H356.615ZM365.609 294.95V292.175H362.894V290.525H365.609V287.75H367.409V290.525H370.094V292.175H367.409V294.95H365.609ZM374.603 294.95V292.175H371.888V290.525H374.603V287.75H376.403V290.525H379.088V292.175H376.403V294.95H374.603ZM383.597 294.95V292.175H380.882V290.525H383.597V287.75H385.397V290.525H388.082V292.175H385.397V294.95H383.597ZM401.586 294.95V292.175H398.871V290.525H401.586V287.75H403.386V290.525H406.071V292.175H403.386V294.95H401.586ZM410.58 294.95V292.175H407.865V290.525H410.58V287.75H412.38V290.525H415.065V292.175H412.38V294.95H410.58ZM419.574 294.95V292.175H416.859V290.525H419.574V287.75H421.374V290.525H424.059V292.175H421.374V294.95H419.574ZM464.545 294.95V292.175H461.83V290.525H464.545V287.75H466.345V290.525H469.03V292.175H466.345V294.95H464.545ZM473.539 294.95V292.175H470.824V290.525H473.539V287.75H475.339V290.525H478.024V292.175H475.339V294.95H473.539ZM203.715 311.95V309.175H201V307.525H203.715V304.75H205.515V307.525H208.2V309.175H205.515V311.95H203.715ZM212.709 311.95V309.175H209.994V307.525H212.709V304.75H214.509V307.525H217.194V309.175H214.509V311.95H212.709ZM221.703 311.95V309.175H218.988V307.525H221.703V304.75H223.503V307.525H226.188V309.175H223.503V311.95H221.703ZM230.697 311.95V309.175H227.982V307.525H230.697V304.75H232.497V307.525H235.182V309.175H232.497V311.95H230.697ZM239.691 311.95V309.175H236.976V307.525H239.691V304.75H241.491V307.525H244.176V309.175H241.491V311.95H239.691ZM248.685 311.95V309.175H245.97V307.525H248.685V304.75H250.485V307.525H253.17V309.175H250.485V311.95H248.685ZM257.679 311.95V309.175H254.964V307.525H257.679V304.75H259.479V307.525H262.164V309.175H259.479V311.95H257.679ZM266.674 311.95V309.175H263.959V307.525H266.674V304.75H268.474V307.525H271.159V309.175H268.474V311.95H266.674ZM275.668 311.95V309.175H272.953V307.525H275.668V304.75H277.468V307.525H280.153V309.175H277.468V311.95H275.668ZM284.662 311.95V309.175H281.947V307.525H284.662V304.75H286.462V307.525H289.147V309.175H286.462V311.95H284.662ZM293.656 311.95V309.175H290.941V307.525H293.656V304.75H295.456V307.525H298.141V309.175H295.456V311.95H293.656ZM302.65 311.95V309.175H299.935V307.525H302.65V304.75H304.45V307.525H307.135V309.175H304.45V311.95H302.65ZM311.644 311.95V309.175H308.929V307.525H311.644V304.75H313.444V307.525H316.129V309.175H313.444V311.95H311.644ZM392.592 311.95V309.175H389.877V307.525H392.592V304.75H394.392V307.525H397.077V309.175H394.392V311.95H392.592ZM401.586 311.95V309.175H398.871V307.525H401.586V304.75H403.386V307.525H406.071V309.175H403.386V311.95H401.586ZM410.58 311.95V309.175H407.865V307.525H410.58V304.75H412.38V307.525H415.065V309.175H412.38V311.95H410.58ZM419.574 311.95V309.175H416.859V307.525H419.574V304.75H421.374V307.525H424.059V309.175H421.374V311.95H419.574ZM455.551 311.95V309.175H452.836V307.525H455.551V304.75H457.351V307.525H460.036V309.175H457.351V311.95H455.551ZM464.545 311.95V309.175H461.83V307.525H464.545V304.75H466.345V307.525H469.03V309.175H466.345V311.95H464.545ZM203.715 328.95V326.175H201V324.525H203.715V321.75H205.515V324.525H208.2V326.175H205.515V328.95H203.715ZM212.709 328.95V326.175H209.994V324.525H212.709V321.75H214.509V324.525H217.194V326.175H214.509V328.95H212.709ZM221.703 328.95V326.175H218.988V324.525H221.703V321.75H223.503V324.525H226.188V326.175H223.503V328.95H221.703ZM230.697 328.95V326.175H227.982V324.525H230.697V321.75H232.497V324.525H235.182V326.175H232.497V328.95H230.697ZM239.691 328.95V326.175H236.976V324.525H239.691V321.75H241.491V324.525H244.176V326.175H241.491V328.95H239.691ZM383.597 328.95V326.175H380.882V324.525H383.597V321.75H385.397V324.525H388.082V326.175H385.397V328.95H383.597ZM392.592 328.95V326.175H389.877V324.525H392.592V321.75H394.392V324.525H397.077V326.175H394.392V328.95H392.592ZM401.586 328.95V326.175H398.871V324.525H401.586V321.75H403.386V324.525H406.071V326.175H403.386V328.95H401.586ZM410.58 328.95V326.175H407.865V324.525H410.58V321.75H412.38V324.525H415.065V326.175H412.38V328.95H410.58ZM419.574 328.95V326.175H416.859V324.525H419.574V321.75H421.374V324.525H424.059V326.175H421.374V328.95H419.574ZM455.551 328.95V326.175H452.836V324.525H455.551V321.75H457.351V324.525H460.036V326.175H457.351V328.95H455.551ZM464.545 328.95V326.175H461.83V324.525H464.545V321.75H466.345V324.525H469.03V326.175H466.345V328.95H464.545ZM212.709 345.95V343.175H209.994V341.525H212.709V338.75H214.509V341.525H217.194V343.175H214.509V345.95H212.709ZM221.703 345.95V343.175H218.988V341.525H221.703V338.75H223.503V341.525H226.188V343.175H223.503V345.95H221.703ZM230.697 345.95V343.175H227.982V341.525H230.697V338.75H232.497V341.525H235.182V343.175H232.497V345.95H230.697ZM239.691 345.95V343.175H236.976V341.525H239.691V338.75H241.491V341.525H244.176V343.175H241.491V345.95H239.691ZM248.685 345.95V343.175H245.97V341.525H248.685V338.75H250.485V341.525H253.17V343.175H250.485V345.95H248.685ZM257.679 345.95V343.175H254.964V341.525H257.679V338.75H259.479V341.525H262.164V343.175H259.479V345.95H257.679ZM266.674 345.95V343.175H263.959V341.525H266.674V338.75H268.474V341.525H271.159V343.175H268.474V345.95H266.674ZM275.668 345.95V343.175H272.953V341.525H275.668V338.75H277.468V341.525H280.153V343.175H277.468V345.95H275.668ZM284.662 345.95V343.175H281.947V341.525H284.662V338.75H286.462V341.525H289.147V343.175H286.462V345.95H284.662ZM293.656 345.95V343.175H290.941V341.525H293.656V338.75H295.456V341.525H298.141V343.175H295.456V345.95H293.656ZM302.65 345.95V343.175H299.935V341.525H302.65V338.75H304.45V341.525H307.135V343.175H304.45V345.95H302.65ZM383.597 345.95V343.175H380.882V341.525H383.597V338.75H385.397V341.525H388.082V343.175H385.397V345.95H383.597ZM392.592 345.95V343.175H389.877V341.525H392.592V338.75H394.392V341.525H397.077V343.175H394.392V345.95H392.592ZM410.58 345.95V343.175H407.865V341.525H410.58V338.75H412.38V341.525H415.065V343.175H412.38V345.95H410.58ZM419.574 345.95V343.175H416.859V341.525H419.574V338.75H421.374V341.525H424.059V343.175H421.374V345.95H419.574ZM446.556 345.95V343.175H443.841V341.525H446.556V338.75H448.356V341.525H451.041V343.175H448.356V345.95H446.556ZM455.551 345.95V343.175H452.836V341.525H455.551V338.75H457.351V341.525H460.036V343.175H457.351V345.95H455.551ZM464.545 345.95V343.175H461.83V341.525H464.545V338.75H466.345V341.525H469.03V343.175H466.345V345.95H464.545ZM239.691 362.95V360.175H236.976V358.525H239.691V355.75H241.491V358.525H244.176V360.175H241.491V362.95H239.691ZM248.685 362.95V360.175H245.97V358.525H248.685V355.75H250.485V358.525H253.17V360.175H250.485V362.95H248.685ZM257.679 362.95V360.175H254.964V358.525H257.679V355.75H259.479V358.525H262.164V360.175H259.479V362.95H257.679ZM302.65 362.95V360.175H299.935V358.525H302.65V355.75H304.45V358.525H307.135V360.175H304.45V362.95H302.65ZM311.644 362.95V360.175H308.929V358.525H311.644V355.75H313.444V358.525H316.129V360.175H313.444V362.95H311.644ZM320.638 362.95V360.175H317.923V358.525H320.638V355.75H322.438V358.525H325.123V360.175H322.438V362.95H320.638ZM329.633 362.95V360.175H326.918V358.525H329.633V355.75H331.433V358.525H334.118V360.175H331.433V362.95H329.633ZM338.627 362.95V360.175H335.912V358.525H338.627V355.75H340.427V358.525H343.112V360.175H340.427V362.95H338.627ZM347.621 362.95V360.175H344.906V358.525H347.621V355.75H349.421V358.525H352.106V360.175H349.421V362.95H347.621ZM374.603 362.95V360.175H371.888V358.525H374.603V355.75H376.403V358.525H379.088V360.175H376.403V362.95H374.603ZM383.597 362.95V360.175H380.882V358.525H383.597V355.75H385.397V358.525H388.082V360.175H385.397V362.95H383.597ZM410.58 362.95V360.175H407.865V358.525H410.58V355.75H412.38V358.525H415.065V360.175H412.38V362.95H410.58ZM419.574 362.95V360.175H416.859V358.525H419.574V355.75H421.374V358.525H424.059V360.175H421.374V362.95H419.574ZM446.556 362.95V360.175H443.841V358.525H446.556V355.75H448.356V358.525H451.041V360.175H448.356V362.95H446.556ZM455.551 362.95V360.175H452.836V358.525H455.551V355.75H457.351V358.525H460.036V360.175H457.351V362.95H455.551ZM257.679 379.95V377.175H254.964V375.525H257.679V372.75H259.479V375.525H262.164V377.175H259.479V379.95H257.679ZM266.674 379.95V377.175H263.959V375.525H266.674V372.75H268.474V375.525H271.159V377.175H268.474V379.95H266.674ZM275.668 379.95V377.175H272.953V375.525H275.668V372.75H277.468V375.525H280.153V377.175H277.468V379.95H275.668ZM284.662 379.95V377.175H281.947V375.525H284.662V372.75H286.462V375.525H289.147V377.175H286.462V379.95H284.662ZM347.621 379.95V377.175H344.906V375.525H347.621V372.75H349.421V375.525H352.106V377.175H349.421V379.95H347.621ZM356.615 379.95V377.175H353.9V375.525H356.615V372.75H358.415V375.525H361.1V377.175H358.415V379.95H356.615ZM365.609 379.95V377.175H362.894V375.525H365.609V372.75H367.409V375.525H370.094V377.175H367.409V379.95H365.609ZM374.603 379.95V377.175H371.888V375.525H374.603V372.75H376.403V375.525H379.088V377.175H376.403V379.95H374.603ZM383.597 379.95V377.175H380.882V375.525H383.597V372.75H385.397V375.525H388.082V377.175H385.397V379.95H383.597ZM410.58 379.95V377.175H407.865V375.525H410.58V372.75H412.38V375.525H415.065V377.175H412.38V379.95H410.58ZM419.574 379.95V377.175H416.859V375.525H419.574V372.75H421.374V375.525H424.059V377.175H421.374V379.95H419.574ZM446.556 379.95V377.175H443.841V375.525H446.556V372.75H448.356V375.525H451.041V377.175H448.356V379.95H446.556ZM455.551 379.95V377.175H452.836V375.525H455.551V372.75H457.351V375.525H460.036V377.175H457.351V379.95H455.551ZM275.668 396.95V394.175H272.953V392.525H275.668V389.75H277.468V392.525H280.153V394.175H277.468V396.95H275.668ZM284.662 396.95V394.175H281.947V392.525H284.662V389.75H286.462V392.525H289.147V394.175H286.462V396.95H284.662ZM293.656 396.95V394.175H290.941V392.525H293.656V389.75H295.456V392.525H298.141V394.175H295.456V396.95H293.656ZM374.603 396.95V394.175H371.888V392.525H374.603V389.75H376.403V392.525H379.088V394.175H376.403V396.95H374.603ZM383.597 396.95V394.175H380.882V392.525H383.597V389.75H385.397V392.525H388.082V394.175H385.397V396.95H383.597ZM392.592 396.95V394.175H389.877V392.525H392.592V389.75H394.392V392.525H397.077V394.175H394.392V396.95H392.592ZM410.58 396.95V394.175H407.865V392.525H410.58V389.75H412.38V392.525H415.065V394.175H412.38V396.95H410.58ZM419.574 396.95V394.175H416.859V392.525H419.574V389.75H421.374V392.525H424.059V394.175H421.374V396.95H419.574ZM446.556 396.95V394.175H443.841V392.525H446.556V389.75H448.356V392.525H451.041V394.175H448.356V396.95H446.556ZM455.551 396.95V394.175H452.836V392.525H455.551V389.75H457.351V392.525H460.036V394.175H457.351V396.95H455.551ZM302.65 413.95V411.175H299.935V409.525H302.65V406.75H304.45V409.525H307.135V411.175H304.45V413.95H302.65ZM311.644 413.95V411.175H308.929V409.525H311.644V406.75H313.444V409.525H316.129V411.175H313.444V413.95H311.644ZM320.638 413.95V411.175H317.923V409.525H320.638V406.75H322.438V409.525H325.123V411.175H322.438V413.95H320.638ZM383.597 413.95V411.175H380.882V409.525H383.597V406.75H385.397V409.525H388.082V411.175H385.397V413.95H383.597ZM392.592 413.95V411.175H389.877V409.525H392.592V406.75H394.392V409.525H397.077V411.175H394.392V413.95H392.592ZM410.58 413.95V411.175H407.865V409.525H410.58V406.75H412.38V409.525H415.065V411.175H412.38V413.95H410.58ZM437.562 413.95V411.175H434.847V409.525H437.562V406.75H439.362V409.525H442.047V411.175H439.362V413.95H437.562ZM446.556 413.95V411.175H443.841V409.525H446.556V406.75H448.356V409.525H451.041V411.175H448.356V413.95H446.556ZM320.638 430.95V428.175H317.923V426.525H320.638V423.75H322.438V426.525H325.123V428.175H322.438V430.95H320.638ZM329.633 430.95V428.175H326.918V426.525H329.633V423.75H331.433V426.525H334.118V428.175H331.433V430.95H329.633ZM338.627 430.95V428.175H335.912V426.525H338.627V423.75H340.427V426.525H343.112V428.175H340.427V430.95H338.627ZM383.597 430.95V428.175H380.882V426.525H383.597V423.75H385.397V426.525H388.082V428.175H385.397V430.95H383.597ZM392.592 430.95V428.175H389.877V426.525H392.592V423.75H394.392V426.525H397.077V428.175H394.392V430.95H392.592ZM401.586 430.95V428.175H398.871V426.525H401.586V423.75H403.386V426.525H406.071V428.175H403.386V430.95H401.586ZM410.58 430.95V428.175H407.865V426.525H410.58V423.75H412.38V426.525H415.065V428.175H412.38V430.95H410.58ZM437.562 430.95V428.175H434.847V426.525H437.562V423.75H439.362V426.525H442.047V428.175H439.362V430.95H437.562ZM446.556 430.95V428.175H443.841V426.525H446.556V423.75H448.356V426.525H451.041V428.175H448.356V430.95H446.556ZM338.627 447.95V445.175H335.912V443.525H338.627V440.75H340.427V443.525H343.112V445.175H340.427V447.95H338.627ZM347.621 447.95V445.175H344.906V443.525H347.621V440.75H349.421V443.525H352.106V445.175H349.421V447.95H347.621ZM356.615 447.95V445.175H353.9V443.525H356.615V440.75H358.415V443.525H361.1V445.175H358.415V447.95H356.615ZM365.609 447.95V445.175H362.894V443.525H365.609V440.75H367.409V443.525H370.094V445.175H367.409V447.95H365.609ZM392.592 447.95V445.175H389.877V443.525H392.592V440.75H394.392V443.525H397.077V445.175H394.392V447.95H392.592ZM401.586 447.95V445.175H398.871V443.525H401.586V440.75H403.386V443.525H406.071V445.175H403.386V447.95H401.586ZM410.58 447.95V445.175H407.865V443.525H410.58V440.75H412.38V443.525H415.065V445.175H412.38V447.95H410.58ZM428.568 447.95V445.175H425.853V443.525H428.568V440.75H430.368V443.525H433.053V445.175H430.368V447.95H428.568ZM437.562 447.95V445.175H434.847V443.525H437.562V440.75H439.362V443.525H442.047V445.175H439.362V447.95H437.562ZM356.615 464.95V462.175H353.9V460.525H356.615V457.75H358.415V460.525H361.1V462.175H358.415V464.95H356.615ZM365.609 464.95V462.175H362.894V460.525H365.609V457.75H367.409V460.525H370.094V462.175H367.409V464.95H365.609ZM374.603 464.95V462.175H371.888V460.525H374.603V457.75H376.403V460.525H379.088V462.175H376.403V464.95H374.603ZM383.597 464.95V462.175H380.882V460.525H383.597V457.75H385.397V460.525H388.082V462.175H385.397V464.95H383.597ZM401.586 464.95V462.175H398.871V460.525H401.586V457.75H403.386V460.525H406.071V462.175H403.386V464.95H401.586ZM419.574 464.95V462.175H416.859V460.525H419.574V457.75H421.374V460.525H424.059V462.175H421.374V464.95H419.574ZM428.568 464.95V462.175H425.853V460.525H428.568V457.75H430.368V460.525H433.053V462.175H430.368V464.95H428.568ZM437.562 464.95V462.175H434.847V460.525H437.562V457.75H439.362V460.525H442.047V462.175H439.362V464.95H437.562ZM383.597 481.95V479.175H380.882V477.525H383.597V474.75H385.397V477.525H388.082V479.175H385.397V481.95H383.597ZM392.592 481.95V479.175H389.877V477.525H392.592V474.75H394.392V477.525H397.077V479.175H394.392V481.95H392.592ZM401.586 481.95V479.175H398.871V477.525H401.586V474.75H403.386V477.525H406.071V479.175H403.386V481.95H401.586ZM410.58 481.95V479.175H407.865V477.525H410.58V474.75H412.38V477.525H415.065V479.175H412.38V481.95H410.58ZM419.574 481.95V479.175H416.859V477.525H419.574V474.75H421.374V477.525H424.059V479.175H421.374V481.95H419.574ZM428.568 481.95V479.175H425.853V477.525H428.568V474.75H430.368V477.525H433.053V479.175H430.368V481.95H428.568ZM401.586 498.95V496.175H398.871V494.525H401.586V491.75H403.386V494.525H406.071V496.175H403.386V498.95H401.586ZM410.58 498.95V496.175H407.865V494.525H410.58V491.75H412.38V494.525H415.065V496.175H412.38V498.95H410.58ZM419.574 498.95V496.175H416.859V494.525H419.574V491.75H421.374V494.525H424.059V496.175H421.374V498.95H419.574Z" fill="#BFDBF7"/>
</svg>
