<svg width="54" height="79" viewBox="0 0 54 79" fill="none" xmlns="http://www.w3.org/2000/svg">
<g clip-path="url(#clip0_79_56)">
<path d="M22.5012 0.808105L3.49195 9.99435L0.308472 49.8681" stroke="#04AF9B" stroke-width="2" stroke-miterlimit="10"/>
<path d="M3.27508 10.0159L13.6901 24.5797L13.907 24.1767L0.268799 50.028" stroke="#04AF9B" stroke-width="2" stroke-miterlimit="10"/>
<path d="M0.268799 49.5942L37.3371 78.2543" stroke="#04AF9B" stroke-width="2" stroke-miterlimit="10"/>
<path d="M29.2532 57.1807L37.3371 78.2543" stroke="#04AF9B" stroke-width="2" stroke-miterlimit="10"/>
<path d="M35.6262 40.894L37.3371 78.2543" stroke="#04AF9B" stroke-width="2" stroke-miterlimit="10"/>
<path d="M53.7037 3.91528L37.3372 78.2543" stroke="#04AF9B" stroke-width="2" stroke-miterlimit="10"/>
<path d="M22.5012 0.808105L53.7036 3.91531" stroke="#04AF9B" stroke-width="2" stroke-miterlimit="10"/>
<path d="M13.6902 24.5797L22.5013 0.808105" stroke="#04AF9B" stroke-width="2" stroke-miterlimit="10"/>
<path d="M53.7037 3.91528L13.6902 24.5797" stroke="#04AF9B" stroke-width="2" stroke-miterlimit="10"/>
<path d="M35.6262 40.8941L53.7036 3.91528" stroke="#04AF9B" stroke-width="2" stroke-miterlimit="10"/>
<path d="M13.6902 24.5798L35.6263 40.8942" stroke="#04AF9B" stroke-width="2" stroke-miterlimit="10"/>
<path d="M0.268799 49.5942L35.6262 40.894" stroke="#04AF9B" stroke-width="2" stroke-miterlimit="10"/>
<path d="M29.4364 57.6607L0.268799 49.5942" stroke="#04AF9B" stroke-width="2" stroke-miterlimit="10"/>
<path d="M35.6262 40.894L29.4364 57.6606" stroke="#04AF9B" stroke-width="2" stroke-miterlimit="10"/>
</g>
<defs>
<clipPath id="clip0_79_56">
<rect width="54" height="78" fill="white" transform="translate(0 0.500488)"/>
</clipPath>
</defs>
</svg>
